<svg width="100" height="100" viewBox="0 0 100 100" fill="none" xmlns="http://www.w3.org/2000/svg">
<circle cx="50" cy="50" r="50" fill="white"/>
<g clip-path="url(#clip0_408_2)">
<path d="M50.5 28.6406C39.5293 28.6406 30.6406 37.5293 30.6406 48.5C30.6406 59.4707 39.5293 68.3594 50.5 68.3594C61.4707 68.3594 70.3594 59.4707 70.3594 48.5C70.3594 37.5293 61.4707 28.6406 50.5 28.6406ZM55.0725 56.676L48.0096 51.543C47.7613 51.3588 47.6172 51.0705 47.6172 50.7662V37.2891C47.6172 36.7605 48.0496 36.3281 48.5781 36.3281H52.4219C52.9504 36.3281 53.3828 36.7605 53.3828 37.2891V48.3158L58.4678 52.0154C58.9002 52.3277 58.9883 52.9283 58.676 53.3607L56.4178 56.4678C56.1055 56.8922 55.5049 56.9883 55.0725 56.676Z" fill="#0787F5"/>
</g>
<defs>
<clipPath id="clip0_408_2">
<rect width="41" height="41" fill="white" transform="translate(30 28)"/>
</clipPath>
</defs>
</svg>
