<svg width="15" height="15" viewBox="0 0 15 15" fill="none" xmlns="http://www.w3.org/2000/svg">
<g clip-path="url(#clip0_361_32)">
<path d="M7.30169 4.69427L2.50039 8.6487V12.9167C2.50039 13.0272 2.54429 13.1332 2.62243 13.2113C2.70057 13.2894 2.80655 13.3333 2.91706 13.3333L5.83529 13.3258C5.94543 13.3252 6.05088 13.2811 6.12857 13.203C6.20626 13.1249 6.24987 13.0193 6.24987 12.9091V10.4167C6.24987 10.3062 6.29377 10.2002 6.37191 10.122C6.45005 10.0439 6.55603 10 6.66654 10H8.3332C8.44371 10 8.54969 10.0439 8.62783 10.122C8.70597 10.2002 8.74987 10.3062 8.74987 10.4167V12.9073C8.7497 12.9621 8.76035 13.0164 8.78121 13.0671C8.80207 13.1178 8.83274 13.1639 8.87145 13.2028C8.91016 13.2416 8.95615 13.2724 9.00678 13.2934C9.05742 13.3144 9.11171 13.3253 9.16654 13.3253L12.0837 13.3333C12.1942 13.3333 12.3002 13.2894 12.3784 13.2113C12.4565 13.1332 12.5004 13.0272 12.5004 12.9167V8.64583L7.70013 4.69427C7.6437 4.64878 7.57339 4.62398 7.50091 4.62398C7.42843 4.62398 7.35813 4.64878 7.30169 4.69427ZM14.8858 7.38203L12.7087 5.5875V1.98047C12.7087 1.89759 12.6758 1.8181 12.6172 1.7595C12.5586 1.70089 12.4791 1.66797 12.3962 1.66797H10.9379C10.855 1.66797 10.7755 1.70089 10.7169 1.7595C10.6583 1.8181 10.6254 1.89759 10.6254 1.98047V3.87135L8.29388 1.95313C8.07013 1.76901 7.78937 1.66834 7.49961 1.66834C7.20985 1.66834 6.92908 1.76901 6.70534 1.95313L0.113411 7.38203C0.0817672 7.40819 0.0555869 7.44032 0.0363661 7.4766C0.0171453 7.51287 0.00526062 7.55258 0.00139119 7.59345C-0.00247824 7.63432 0.0017434 7.67555 0.0138149 7.71479C0.0258864 7.75403 0.0455712 7.79051 0.0717445 7.82214L0.735807 8.62943C0.761909 8.66117 0.794014 8.68745 0.830286 8.70676C0.866557 8.72608 0.906281 8.73805 0.947185 8.74199C0.988089 8.74593 1.02937 8.74177 1.06866 8.72974C1.10795 8.71771 1.14449 8.69804 1.17617 8.67188L7.30169 3.62656C7.35813 3.58107 7.42843 3.55627 7.50091 3.55627C7.57339 3.55627 7.6437 3.58107 7.70013 3.62656L13.8259 8.67188C13.8575 8.69805 13.894 8.71773 13.9333 8.7298C13.9725 8.74188 14.0137 8.7461 14.0546 8.74223C14.0955 8.73836 14.1352 8.72647 14.1715 8.70725C14.2077 8.68803 14.2399 8.66185 14.266 8.63021L14.9301 7.82292C14.9562 7.79111 14.9758 7.75444 14.9878 7.71503C14.9997 7.67562 15.0037 7.63424 14.9996 7.59327C14.9955 7.5523 14.9833 7.51255 14.9638 7.4763C14.9443 7.44004 14.9178 7.40801 14.8858 7.38203Z" fill="white"/>
</g>
<defs>
<clipPath id="clip0_361_32">
<rect width="15" height="15" fill="white"/>
</clipPath>
</defs>
</svg>
