<svg width="88" height="88" viewBox="0 0 88 88" fill="none" xmlns="http://www.w3.org/2000/svg">
<circle cx="44" cy="44" r="44" fill="#0460AD"/>
<g clip-path="url(#clip0_410_13)">
<path d="M61.212 51.5955L52.7497 43.1332C51.0804 41.4639 48.5872 41.1387 46.5782 42.1287L38.8747 34.4252V29.9375L29.6247 23L24.9997 27.625L31.9372 36.875H36.4249L44.1284 44.5785C43.1456 46.5875 43.4636 49.0807 45.1329 50.75L53.5952 59.2123C54.6503 60.2674 56.3558 60.2674 57.4036 59.2123L61.212 55.4039C62.2599 54.3488 62.2599 52.6434 61.212 51.5955ZM48.9702 39.2598C51.0153 39.2598 52.9376 40.0547 54.3829 41.5L55.7849 42.902C56.9267 42.4033 58.0106 41.7096 58.9501 40.7701C61.6311 38.0891 62.5417 34.3168 61.689 30.8914C61.53 30.241 60.7134 30.017 60.2364 30.4939L54.8599 35.8705L49.953 35.0539L49.1364 30.1471L54.513 24.7705C54.9899 24.2936 54.7587 23.477 54.1011 23.3107C50.6757 22.4652 46.9034 23.3758 44.2296 26.0496C42.17 28.1092 41.2017 30.8264 41.2522 33.5363L47.1853 39.4693C47.7706 39.332 48.3776 39.2598 48.9702 39.2598ZM41.4618 45.1855L37.3644 41.0881L26.3511 52.1086C24.5444 53.9152 24.5444 56.842 26.3511 58.6486C28.1577 60.4553 31.0845 60.4553 32.8911 58.6486L41.8231 49.7166C41.2739 48.2785 41.1077 46.7104 41.4618 45.1855ZM29.6247 57.1094C28.6708 57.1094 27.8903 56.3289 27.8903 55.375C27.8903 54.4139 28.6636 53.6406 29.6247 53.6406C30.5858 53.6406 31.3591 54.4139 31.3591 55.375C31.3591 56.3289 30.5858 57.1094 29.6247 57.1094Z" fill="white"/>
</g>
<defs>
<clipPath id="clip0_410_13">
<rect width="37" height="37" fill="white" transform="translate(25 23)"/>
</clipPath>
</defs>
</svg>
