<svg width="18" height="18" viewBox="0 0 18 18" fill="none" xmlns="http://www.w3.org/2000/svg">
<g clip-path="url(#clip0_361_36)">
<path d="M9 0.28125C4.18359 0.28125 0.28125 4.18359 0.28125 9C0.28125 13.8164 4.18359 17.7188 9 17.7188C13.8164 17.7188 17.7188 13.8164 17.7188 9C17.7188 4.18359 13.8164 0.28125 9 0.28125ZM11.0074 12.5895L7.90664 10.3359C7.79766 10.2551 7.73438 10.1285 7.73438 9.99492V4.07812C7.73438 3.84609 7.92422 3.65625 8.15625 3.65625H9.84375C10.0758 3.65625 10.2656 3.84609 10.2656 4.07812V8.91914L12.498 10.5434C12.6879 10.6805 12.7266 10.9441 12.5895 11.134L11.598 12.498C11.4609 12.6844 11.1973 12.7266 11.0074 12.5895Z" fill="#FFFAFA"/>
</g>
<defs>
<clipPath id="clip0_361_36">
<rect width="18" height="18" fill="white"/>
</clipPath>
</defs>
</svg>
