<svg width="193" height="65" viewBox="0 0 193 65" fill="none" xmlns="http://www.w3.org/2000/svg">
<g clip-path="url(#clip0_360_125)">
<path d="M145.908 19.5254C145.436 19.5254 144.983 19.338 144.649 19.0044C144.315 18.6708 144.128 18.2183 144.128 17.7465V4.46605H142.8L129.022 18.2407C128.67 18.5692 128.208 18.754 127.727 18.7583C127.487 18.7537 127.251 18.7004 127.032 18.6017C126.814 18.503 126.618 18.361 126.456 18.1842L113.035 3.55308H111.872V17.7465C111.872 18.2183 111.685 18.6708 111.351 19.0044C111.017 19.338 110.564 19.5254 110.092 19.5254C109.62 19.5254 109.168 19.338 108.834 19.0044C108.5 18.6708 108.313 18.2183 108.313 17.7465V1.7789C108.312 1.30711 108.5 0.85464 108.834 0.521033C109.168 0.187427 109.62 9.0711e-06 110.092 9.0711e-06H113.817C114.063 -0.000779774 114.307 0.0498897 114.532 0.148765C114.758 0.247639 114.96 0.392534 115.126 0.574148L127.816 14.4099L140.794 1.41182C140.959 1.24614 141.154 1.11468 141.37 1.02502C141.586 0.935368 141.817 0.889293 142.051 0.889453H145.894C146.365 0.890695 146.817 1.07851 147.151 1.41185C147.484 1.74519 147.672 2.19693 147.673 2.66834V17.7277C147.676 17.9617 147.632 18.1939 147.545 18.411C147.457 18.6281 147.328 18.8258 147.164 18.9928C147 19.1598 146.804 19.2928 146.589 19.3842C146.373 19.4756 146.142 19.5236 145.908 19.5254Z" fill="white"/>
<path d="M78.7407 27.2945V25.5156H69.4502V38.4855H78.7407V36.7066H71.2301V32.89H78.7407V31.1111H71.2301V27.2945H78.7407Z" fill="white"/>
<path d="M92.1043 38.6462C91.9649 38.646 91.8276 38.6131 91.7032 38.5502C91.5789 38.4873 91.4711 38.396 91.3885 38.2838L83.3129 27.2952H82.4465V37.5967C82.4554 37.7187 82.4391 37.8411 82.3985 37.9565C82.3579 38.0718 82.294 38.1775 82.2107 38.267C82.1274 38.3566 82.0265 38.428 81.9144 38.4768C81.8022 38.5256 81.6812 38.5508 81.5589 38.5508C81.4366 38.5508 81.3156 38.5256 81.2034 38.4768C81.0913 38.428 80.9904 38.3566 80.9071 38.267C80.8238 38.1775 80.7599 38.0718 80.7193 37.9565C80.6788 37.8411 80.6624 37.7187 80.6713 37.5967V26.4058C80.6707 26.2888 80.6933 26.1728 80.7378 26.0646C80.7823 25.9564 80.8478 25.8581 80.9306 25.7754C81.0133 25.6927 81.1117 25.6272 81.22 25.5827C81.3282 25.5383 81.4442 25.5157 81.5613 25.5163H83.765C83.9043 25.5169 84.0415 25.5499 84.1658 25.6128C84.29 25.6757 84.3979 25.7668 84.4807 25.8787L91.2143 35.0461V26.034C91.2143 25.7981 91.3081 25.5718 91.475 25.405C91.6419 25.2382 91.8683 25.1445 92.1043 25.1445C92.3403 25.1445 92.5667 25.2382 92.7336 25.405C92.9005 25.5718 92.9943 25.7981 92.9943 26.034V37.7568C92.9944 37.9438 92.9353 38.1261 92.8253 38.2775C92.7153 38.4288 92.5601 38.5414 92.3821 38.5991C92.2929 38.6307 92.1989 38.6467 92.1043 38.6462Z" fill="white"/>
<path d="M177.522 38.6462C177.382 38.646 177.245 38.6131 177.121 38.5502C176.996 38.4873 176.889 38.396 176.806 38.2838L168.735 27.2952H167.869V37.5967C167.869 37.8326 167.775 38.0589 167.608 38.2257C167.441 38.3925 167.215 38.4862 166.979 38.4862C166.743 38.4862 166.516 38.3925 166.35 38.2257C166.183 38.0589 166.089 37.8326 166.089 37.5967V26.4058C166.089 26.289 166.112 26.1733 166.157 26.0654C166.201 25.9575 166.267 25.8594 166.35 25.7768C166.432 25.6942 166.53 25.6287 166.638 25.584C166.746 25.5393 166.862 25.5163 166.979 25.5163H169.183C169.323 25.5165 169.461 25.5493 169.586 25.6123C169.711 25.6752 169.819 25.7664 169.903 25.8787L176.632 35.0461V26.034C176.632 25.7981 176.726 25.5718 176.893 25.405C177.059 25.2382 177.286 25.1445 177.522 25.1445C177.758 25.1445 177.984 25.2382 178.151 25.405C178.318 25.5718 178.412 25.7981 178.412 26.034V37.7568C178.413 37.944 178.354 38.1266 178.244 38.2781C178.134 38.4296 177.978 38.5421 177.8 38.5991C177.711 38.6311 177.617 38.6471 177.522 38.6462Z" fill="white"/>
<path d="M110.04 38.8575C109.804 38.8575 109.577 38.7638 109.41 38.597C109.244 38.4302 109.15 38.2039 109.15 37.968V26.4053C109.141 26.2833 109.157 26.1609 109.198 26.0456C109.238 25.9302 109.302 25.8245 109.386 25.735C109.469 25.6454 109.57 25.574 109.682 25.5252C109.794 25.4764 109.915 25.4512 110.037 25.4512C110.16 25.4512 110.281 25.4764 110.393 25.5252C110.505 25.574 110.606 25.6454 110.689 25.735C110.772 25.8245 110.836 25.9302 110.877 26.0456C110.918 26.1609 110.934 26.2833 110.925 26.4053V37.968C110.925 38.2031 110.832 38.4286 110.666 38.5953C110.5 38.762 110.275 38.8562 110.04 38.8575Z" fill="white"/>
<path d="M163.339 38.8573C163.104 38.856 162.879 38.7618 162.713 38.5951C162.547 38.4284 162.454 38.2029 162.454 37.9678V26.4051C162.454 26.1692 162.548 25.9429 162.715 25.7761C162.882 25.6093 163.108 25.5156 163.344 25.5156C163.58 25.5156 163.806 25.6093 163.973 25.7761C164.14 25.9429 164.234 26.1692 164.234 26.4051V37.9678C164.234 38.085 164.211 38.2011 164.166 38.3093C164.121 38.4175 164.055 38.5158 163.972 38.5984C163.889 38.6811 163.79 38.7465 163.681 38.7909C163.573 38.8354 163.457 38.8579 163.339 38.8573Z" fill="white"/>
<path d="M164.489 54.1192C164.372 54.1198 164.256 54.0974 164.148 54.0532C164.04 54.009 163.942 53.9439 163.86 53.8617C163.777 53.7795 163.711 53.6818 163.666 53.5741C163.622 53.4665 163.599 53.351 163.599 53.2345V47.7896V41.6717C163.598 41.5547 163.621 41.4388 163.665 41.3306C163.71 41.2224 163.775 41.1241 163.858 41.0414C163.941 40.9586 164.039 40.8932 164.147 40.8487C164.256 40.8042 164.372 40.7816 164.489 40.7822H173.045C173.596 40.7822 174.124 41.0007 174.515 41.3898C174.905 41.7789 175.125 42.3068 175.126 42.8576V46.326C175.123 46.9335 174.881 47.5155 174.452 47.9455C174.022 48.3755 173.44 48.6188 172.833 48.6225L165.379 48.6508V53.2345C165.377 53.4695 165.283 53.6946 165.116 53.8603C164.949 54.0261 164.724 54.1192 164.489 54.1192ZM165.379 42.5564V46.8766L172.814 46.8625C172.951 46.8625 173.083 46.8079 173.18 46.7108C173.277 46.6138 173.332 46.4821 173.332 46.3448V42.8764C173.332 42.7966 173.3 42.7199 173.243 42.6635C173.187 42.607 173.11 42.5752 173.03 42.5752L165.379 42.5564Z" fill="white"/>
<path d="M123.719 38.6455C123.581 38.6452 123.444 38.6127 123.321 38.5506C123.198 38.4885 123.09 38.3985 123.008 38.2879L114.744 27.2945H114.518V37.7561C114.527 37.878 114.51 38.0005 114.47 38.1158C114.429 38.2311 114.365 38.3368 114.282 38.4264C114.199 38.5159 114.098 38.5873 113.986 38.6361C113.874 38.685 113.753 38.7102 113.63 38.7102C113.508 38.7102 113.387 38.685 113.275 38.6361C113.163 38.5873 113.062 38.5159 112.978 38.4264C112.895 38.3368 112.831 38.2311 112.791 38.1158C112.75 38.0005 112.734 37.878 112.743 37.7561V26.4051C112.742 26.2881 112.765 26.1722 112.809 26.064C112.854 25.9558 112.919 25.8575 113.002 25.7748C113.085 25.692 113.183 25.6265 113.291 25.5821C113.4 25.5376 113.516 25.515 113.633 25.5156H115.186C115.324 25.5151 115.46 25.5467 115.584 25.608C115.707 25.6693 115.815 25.7585 115.897 25.8686L122.829 35.0925V26.4051C122.829 26.1692 122.923 25.943 123.09 25.7761C123.256 25.6093 123.483 25.5156 123.719 25.5156C123.955 25.5156 124.181 25.6093 124.348 25.7761C124.515 25.943 124.609 26.1692 124.609 26.4051V37.7561C124.607 37.9408 124.547 38.1202 124.438 38.2695C124.329 38.4187 124.177 38.5304 124.001 38.5891C123.911 38.6239 123.816 38.643 123.719 38.6455Z" fill="white"/>
<path d="M134.997 27.2945C135.233 27.2945 135.459 27.2008 135.626 27.034C135.793 26.8672 135.887 26.641 135.887 26.4051C135.887 26.1692 135.793 25.9429 135.626 25.7761C135.459 25.6093 135.233 25.5156 134.997 25.5156H127.839C127.603 25.5156 127.377 25.6093 127.21 25.7761C127.043 25.9429 126.949 26.1692 126.949 26.4051V37.7561C126.949 37.992 127.043 38.2182 127.21 38.385C127.377 38.5518 127.603 38.6455 127.839 38.6455H134.997C135.233 38.6455 135.459 38.5518 135.626 38.385C135.793 38.2182 135.887 37.992 135.887 37.7561C135.887 37.5202 135.793 37.2939 135.626 37.1271C135.459 36.9603 135.233 36.8666 134.997 36.8666H128.729V32.3629H134.997C135.233 32.3629 135.459 32.2692 135.626 32.1024C135.793 31.9356 135.887 31.7094 135.887 31.4735C135.887 31.2376 135.793 31.0114 135.626 30.8446C135.459 30.6778 135.233 30.584 134.997 30.584H128.729V27.2945H134.997Z" fill="white"/>
<path d="M145.799 32.3629C146.035 32.3629 146.261 32.2692 146.428 32.1024C146.595 31.9356 146.688 31.7094 146.688 31.4735C146.688 31.2376 146.595 31.0114 146.428 30.8446C146.261 30.6778 146.035 30.584 145.799 30.584H139.531V27.2945H145.799C146.035 27.2945 146.261 27.2008 146.428 27.034C146.595 26.8672 146.688 26.641 146.688 26.4051C146.688 26.1692 146.595 25.9429 146.428 25.7761C146.261 25.6093 146.035 25.5156 145.799 25.5156H138.641C138.524 25.5156 138.409 25.5387 138.301 25.5834C138.194 25.6282 138.096 25.6938 138.013 25.7764C137.931 25.8591 137.866 25.9572 137.822 26.065C137.778 26.1729 137.755 26.2885 137.756 26.4051V37.7561C137.756 37.9912 137.849 38.2167 138.015 38.3833C138.181 38.55 138.406 38.6443 138.641 38.6455H145.799C146.035 38.6455 146.261 38.5518 146.428 38.385C146.595 38.2182 146.688 37.992 146.688 37.7561C146.688 37.5202 146.595 37.2939 146.428 37.1271C146.261 36.9603 146.035 36.8666 145.799 36.8666H139.531V32.3629H145.799Z" fill="white"/>
<path d="M105.431 38.8577H97.1902C96.6557 38.8577 96.143 38.6455 95.7651 38.2678C95.3871 37.8901 95.1748 37.3777 95.1748 36.8435V27.7656C95.176 27.1656 95.4151 26.5906 95.8396 26.1663C96.2641 25.7421 96.8394 25.5032 97.4397 25.502H105.52C106.02 25.502 106.499 25.7003 106.852 26.0533C107.205 26.4063 107.404 26.8851 107.404 27.3844V28.9703C107.387 29.1944 107.287 29.404 107.122 29.557C106.957 29.7101 106.741 29.7951 106.516 29.7951C106.291 29.7951 106.075 29.7101 105.91 29.557C105.745 29.404 105.645 29.1944 105.628 28.9703V27.4079L97.4397 27.295C97.3149 27.295 97.1951 27.3445 97.1068 27.4328C97.0185 27.5211 96.9689 27.6408 96.9689 27.7656V36.8435C96.9689 36.9059 96.9937 36.9658 97.0378 37.0099C97.082 37.0541 97.1419 37.0788 97.2043 37.0788H105.445C105.5 37.0788 105.552 37.057 105.591 37.0182C105.63 36.9794 105.652 36.9267 105.652 36.8718V33.234H100.849C100.613 33.234 100.387 33.1403 100.22 32.9735C100.053 32.8067 99.959 32.5805 99.959 32.3446C99.959 32.1087 100.053 31.8824 100.22 31.7156C100.387 31.5488 100.613 31.4551 100.849 31.4551H106.528C106.763 31.4564 106.988 31.5506 107.154 31.7173C107.32 31.884 107.413 32.1095 107.413 32.3446V36.8718C107.413 37.3977 107.204 37.9021 106.833 38.2744C106.461 38.6467 105.957 38.8565 105.431 38.8577Z" fill="white"/>
<path d="M92.1982 54.1189H83.9578C83.4241 54.1189 82.9122 53.9074 82.5343 53.5306C82.1565 53.1539 81.9436 52.6428 81.9424 52.1094V43.0597C81.9436 42.4602 82.1828 41.8856 82.6074 41.4621C83.032 41.0386 83.6074 40.8008 84.2073 40.8008H92.2923C92.7919 40.8008 93.271 40.9991 93.6242 41.3521C93.9774 41.7052 94.1759 42.184 94.1759 42.6832V44.2644C94.1848 44.3864 94.1684 44.5088 94.1278 44.6241C94.0873 44.7395 94.0233 44.8452 93.94 44.9347C93.8567 45.0243 93.7559 45.0957 93.6437 45.1445C93.5316 45.1933 93.4106 45.2185 93.2883 45.2185C93.1659 45.2185 93.0449 45.1933 92.9328 45.1445C92.8206 45.0957 92.7198 45.0243 92.6365 44.9347C92.5532 44.8452 92.4893 44.7395 92.4487 44.6241C92.4081 44.5088 92.3918 44.3864 92.4006 44.2644V42.6926L84.2026 42.575C84.0777 42.575 83.958 42.6245 83.8696 42.7128C83.7813 42.8011 83.7317 42.9208 83.7317 43.0456V52.1141C83.7317 52.1765 83.7565 52.2364 83.8007 52.2805C83.8448 52.3246 83.9047 52.3494 83.9672 52.3494H92.2076C92.2625 52.3494 92.3152 52.3276 92.3541 52.2888C92.3929 52.25 92.4148 52.1973 92.4148 52.1424V48.5187H87.6118C87.3758 48.5187 87.1494 48.425 86.9825 48.2582C86.8156 48.0914 86.7218 47.8652 86.7218 47.6293C86.7218 47.3934 86.8156 47.1671 86.9825 47.0003C87.1494 46.8335 87.3758 46.7398 87.6118 46.7398H93.2906C93.4077 46.7392 93.5237 46.7618 93.6319 46.8063C93.7402 46.8507 93.8385 46.9162 93.9213 46.9989C94.0041 47.0817 94.0696 47.18 94.1141 47.2882C94.1586 47.3963 94.1812 47.5123 94.1806 47.6293V52.1565C94.1744 52.6783 93.963 53.1767 93.592 53.5439C93.221 53.9112 92.7203 54.1177 92.1982 54.1189Z" fill="white"/>
<path d="M190.453 38.8577H182.231C181.698 38.8565 181.186 38.6437 180.809 38.2661C180.432 37.8885 180.221 37.3769 180.221 36.8435V27.7656C180.221 27.166 180.459 26.591 180.882 26.1666C181.306 25.7422 181.881 25.5032 182.481 25.502H190.561C191.061 25.502 191.54 25.7003 191.893 26.0533C192.246 26.4063 192.445 26.8851 192.445 27.3844V28.9703C192.445 29.2062 192.351 29.4324 192.184 29.5992C192.017 29.766 191.791 29.8598 191.555 29.8598C191.319 29.8598 191.092 29.766 190.925 29.5992C190.759 29.4324 190.665 29.2062 190.665 28.9703V27.4079L182.462 27.295C182.337 27.295 182.217 27.3445 182.129 27.4328C182.041 27.5211 181.991 27.6408 181.991 27.7656V36.8435C181.991 36.9059 182.016 36.9658 182.06 37.0099C182.104 37.0541 182.164 37.0788 182.227 37.0788H190.467C190.522 37.0788 190.575 37.057 190.614 37.0182C190.652 36.9794 190.674 36.9267 190.674 36.8718V33.234H185.871C185.635 33.234 185.409 33.1403 185.242 32.9735C185.075 32.8067 184.981 32.5805 184.981 32.3446C184.981 32.1087 185.075 31.8824 185.242 31.7156C185.409 31.5488 185.635 31.4551 185.871 31.4551H191.55C191.786 31.4551 192.012 31.5488 192.179 31.7156C192.346 31.8824 192.44 32.1087 192.44 32.3446V36.8718C192.439 37.3981 192.229 37.9025 191.857 38.2747C191.484 38.6469 190.98 38.8565 190.453 38.8577Z" fill="white"/>
<path d="M159.85 38.8573C159.615 38.856 159.389 38.7618 159.224 38.5951C159.058 38.4284 158.965 38.2029 158.965 37.9678V33.4783C158.963 33.182 158.845 32.8983 158.635 32.6893C158.425 32.4803 158.14 32.3629 157.844 32.3629H150.281V37.9678C150.29 38.0898 150.274 38.2122 150.233 38.3275C150.193 38.4429 150.129 38.5486 150.046 38.6381C149.962 38.7277 149.861 38.7991 149.749 38.8479C149.637 38.8967 149.516 38.9219 149.394 38.9219C149.272 38.9219 149.151 38.8967 149.038 38.8479C148.926 38.7991 148.825 38.7277 148.742 38.6381C148.659 38.5486 148.595 38.4429 148.554 38.3275C148.514 38.2122 148.497 38.0898 148.506 37.9678V26.4051C148.506 26.2885 148.528 26.1729 148.572 26.065C148.617 25.9572 148.682 25.8591 148.764 25.7764C148.846 25.6938 148.944 25.6282 149.052 25.5834C149.159 25.5387 149.275 25.5156 149.392 25.5156H158.903C159.391 25.5169 159.858 25.7113 160.202 26.0562C160.546 26.4012 160.74 26.8685 160.74 27.3557V30.0476C160.744 30.6455 160.514 31.2214 160.099 31.6523C160.52 32.1681 160.749 32.813 160.749 33.4783V37.9678C160.749 38.0854 160.726 38.2019 160.681 38.3104C160.635 38.4189 160.569 38.5174 160.485 38.6001C160.402 38.6828 160.302 38.7482 160.193 38.7923C160.084 38.8364 159.967 38.8585 159.85 38.8573ZM150.281 30.5887H158.428C158.57 30.5887 158.707 30.5322 158.807 30.4316C158.908 30.331 158.965 30.1945 158.965 30.0523V27.3557L150.281 27.2945V30.5887Z" fill="white"/>
<path d="M114.001 54.1189C113.765 54.1189 113.54 54.0259 113.373 53.8601C113.206 53.6943 113.112 53.4693 113.111 53.2342V48.7446C113.111 48.4484 112.993 48.1642 112.784 47.9543C112.575 47.7444 112.291 47.6258 111.995 47.6246H104.432V53.2342C104.432 53.4701 104.339 53.6963 104.172 53.8631C104.005 54.0299 103.778 54.1236 103.542 54.1236C103.306 54.1236 103.08 54.0299 102.913 53.8631C102.746 53.6963 102.652 53.4701 102.652 53.2342V41.6902C102.652 41.5733 102.674 41.4573 102.719 41.3491C102.763 41.2409 102.829 41.1426 102.912 41.0599C102.994 40.9772 103.093 40.9117 103.201 40.8672C103.309 40.8227 103.425 40.8002 103.542 40.8008H113.049C113.292 40.8002 113.532 40.8473 113.755 40.9395C113.979 41.0317 114.183 41.1671 114.354 41.3381C114.526 41.509 114.662 41.7121 114.755 41.9356C114.847 42.1592 114.895 42.3988 114.895 42.6409V45.3327C114.895 45.9316 114.662 46.5069 114.245 46.9375C114.666 47.4532 114.895 48.0982 114.895 48.7634V53.253C114.889 53.4856 114.792 53.7066 114.625 53.8684C114.457 54.0303 114.233 54.1202 114.001 54.1189ZM104.432 45.8692H112.574C112.716 45.8692 112.853 45.8127 112.953 45.7121C113.054 45.6115 113.111 45.475 113.111 45.3327V42.6409L104.432 42.5844V45.8692Z" fill="white"/>
<path d="M133.73 54.3357H125.395C124.896 54.3357 124.417 54.1373 124.063 53.7843C123.71 53.4313 123.512 52.9525 123.512 52.4532V42.6646C123.512 42.1654 123.71 41.6866 124.063 41.3336C124.417 40.9806 124.896 40.7822 125.395 40.7822H133.73C134.229 40.7822 134.708 40.9806 135.062 41.3336C135.415 41.6866 135.613 42.1654 135.613 42.6646V52.4721C135.608 52.968 135.408 53.442 135.055 53.791C134.702 54.1399 134.226 54.3357 133.73 54.3357ZM125.409 42.5705L125.325 52.4532L133.73 52.5427C133.742 52.5433 133.754 52.5415 133.765 52.5372C133.776 52.533 133.786 52.5264 133.795 52.518C133.803 52.5095 133.81 52.4994 133.814 52.4882C133.818 52.4771 133.82 52.4652 133.819 52.4532V42.6646L125.409 42.5705Z" fill="white"/>
<path d="M153.036 54.1189H145.173C144.574 54.1189 144.001 53.8814 143.578 53.4587C143.155 53.0359 142.917 52.4626 142.917 51.8647V41.6902C142.917 41.4543 143.011 41.2281 143.178 41.0613C143.345 40.8945 143.571 40.8008 143.807 40.8008C144.043 40.8008 144.269 40.8945 144.436 41.0613C144.603 41.2281 144.697 41.4543 144.697 41.6902V51.8835C144.697 52.0084 144.747 52.1281 144.835 52.2163C144.923 52.3046 145.043 52.3541 145.168 52.3541H153.036C153.221 52.3541 153.398 52.2808 153.529 52.1501C153.66 52.0195 153.733 51.8424 153.733 51.6576V41.6902C153.733 41.5734 153.756 41.4578 153.801 41.3499C153.846 41.2419 153.911 41.1439 153.994 41.0613C154.076 40.9787 154.175 40.9132 154.283 40.8685C154.39 40.8238 154.506 40.8008 154.623 40.8008C154.74 40.8008 154.856 40.8238 154.964 40.8685C155.072 40.9132 155.17 40.9787 155.252 41.0613C155.335 41.1439 155.401 41.2419 155.445 41.3499C155.49 41.4578 155.513 41.5734 155.513 41.6902V51.6671C155.507 52.3195 155.243 52.9431 154.779 53.4022C154.316 53.8614 153.689 54.1189 153.036 54.1189Z" fill="white"/>
<path d="M185.777 19.5254H167.592C165.718 19.5254 163.922 18.7817 162.597 17.4579C161.272 16.134 160.528 14.3385 160.528 12.4663V7.08261C160.528 5.33524 161.223 3.65944 162.459 2.42386C163.695 1.18828 165.372 0.494141 167.121 0.494141H186.681C188.066 0.495388 189.395 1.04629 190.374 2.0258C191.353 3.0053 191.903 4.33326 191.903 5.71786C191.912 6.20127 191.731 6.66899 191.4 7.02083C191.068 7.37268 190.611 7.58068 190.128 7.60028C189.898 7.60914 189.669 7.57165 189.455 7.49007C189.24 7.40849 189.044 7.28449 188.878 7.12547C188.712 6.96645 188.58 6.77568 188.49 6.56455C188.4 6.35343 188.353 6.12628 188.353 5.89669V5.72257C188.351 5.28111 188.175 4.85809 187.863 4.54594C187.551 4.23378 187.127 4.05786 186.686 4.05662H167.116C166.313 4.05662 165.543 4.37543 164.975 4.94291C164.407 5.5104 164.088 6.28007 164.088 7.08261V12.4663C164.089 13.3946 164.459 14.2844 165.116 14.9408C165.772 15.5971 166.663 15.9664 167.592 15.9676H185.777C186.115 15.9683 186.449 15.9024 186.761 15.7739C187.073 15.6453 187.357 15.4565 187.596 15.2184C187.835 14.9802 188.025 14.6973 188.155 14.3858C188.285 14.0743 188.352 13.7403 188.353 13.4028V13.2052C188.376 12.7498 188.574 12.3209 188.904 12.0069C189.235 11.6928 189.674 11.5178 190.13 11.5178C190.586 11.5178 191.025 11.6928 191.356 12.0069C191.687 12.3209 191.884 12.7498 191.908 13.2052V13.4028C191.908 14.2074 191.75 15.0043 191.442 15.7477C191.134 16.4911 190.683 17.1665 190.113 17.7352C189.544 18.3039 188.868 18.7548 188.124 19.062C187.379 19.3692 186.582 19.5267 185.777 19.5254Z" fill="white"/>
<path d="M90.4095 18.758H72.3371C71.1823 18.7568 70.0751 18.2977 69.2586 17.4816C68.442 16.6655 67.9827 15.559 67.9814 14.4049V13.3366C68.0049 12.8813 68.2024 12.4523 68.5332 12.1383C68.864 11.8243 69.3028 11.6492 69.759 11.6492C70.2152 11.6492 70.6541 11.8243 70.9848 12.1383C71.3156 12.4523 71.5131 12.8813 71.5366 13.3366V14.4049C71.5366 14.6171 71.6209 14.8206 71.7711 14.9706C71.9212 15.1206 72.1248 15.2049 72.3371 15.2049H90.4095C90.7001 15.2062 90.9795 15.0927 91.1867 14.8891C91.394 14.6854 91.5124 14.4083 91.5161 14.1178V1.77856C91.5037 1.53757 91.5404 1.29657 91.6242 1.07024C91.7079 0.8439 91.8368 0.636955 92.0031 0.461992C92.1694 0.287029 92.3696 0.147707 92.5914 0.052503C92.8133 -0.0427012 93.0522 -0.0917969 93.2937 -0.0917969C93.5351 -0.0917969 93.774 -0.0427012 93.9959 0.052503C94.2178 0.147707 94.4179 0.287029 94.5842 0.461992C94.7505 0.636955 94.8794 0.8439 94.9631 1.07024C95.0469 1.29657 95.0836 1.53757 95.0712 1.77856V14.1178C95.065 15.3498 94.5713 16.5293 93.6978 17.3987C92.8244 18.2681 91.6422 18.7568 90.4095 18.758Z" fill="white"/>
<path d="M22.5738 31.6476H14.9738C14.1766 31.6476 13.412 31.3314 12.8478 30.7685C12.2837 30.2056 11.9661 29.4419 11.9648 28.6452V25.6286C11.9648 25.374 12.066 25.1298 12.2462 24.9497C12.4263 24.7697 12.6707 24.6685 12.9254 24.6685C13.1802 24.6685 13.4245 24.7697 13.6047 24.9497C13.7848 25.1298 13.886 25.374 13.886 25.6286V28.6452C13.8873 28.9327 14.0024 29.208 14.2063 29.4108C14.4101 29.6137 14.6861 29.7276 14.9738 29.7275H22.5738C22.6809 29.7282 22.7872 29.7075 22.8863 29.6668C22.9854 29.6262 23.0754 29.5662 23.1512 29.4905C23.227 29.4148 23.287 29.3248 23.3277 29.2257C23.3684 29.1266 23.389 29.0205 23.3884 28.9134V13.3458C23.3884 13.0912 23.4896 12.847 23.6698 12.6669C23.8499 12.4869 24.0942 12.3857 24.349 12.3857C24.6038 12.3857 24.8481 12.4869 25.0283 12.6669C25.2084 12.847 25.3096 13.0912 25.3096 13.3458V28.9134C25.3096 29.6386 25.0214 30.334 24.5083 30.8468C23.9952 31.3596 23.2994 31.6476 22.5738 31.6476Z" fill="white"/>
<path d="M38.9558 31.6482C38.7662 31.6507 38.5802 31.5959 38.4222 31.4909C38.2642 31.3859 38.1417 31.2357 38.0706 31.06L31.1015 14.7912H30.4847V30.6882C30.4847 30.9428 30.3835 31.187 30.2033 31.3671C30.0232 31.5471 29.7788 31.6482 29.5241 31.6482C29.2693 31.6482 29.025 31.5471 28.8448 31.3671C28.6647 31.187 28.5635 30.9428 28.5635 30.6882V13.8311C28.5635 13.5815 28.6627 13.3421 28.8393 13.1656C29.0159 12.9891 29.2555 12.8899 29.5052 12.8899H31.7137C31.9028 12.8871 32.0884 12.9412 32.2463 13.0453C32.4042 13.1494 32.5271 13.2986 32.5989 13.4735L38.9558 28.3164L45.6235 13.4405C45.6994 13.2716 45.8224 13.1281 45.9777 13.0271C46.133 12.9262 46.3141 12.872 46.4993 12.8711H47.8461C48.0958 12.8711 48.3354 12.9703 48.512 13.1468C48.6886 13.3233 48.7878 13.5627 48.7878 13.8123V30.6882C48.7878 30.9428 48.6866 31.187 48.5065 31.3671C48.3263 31.5471 48.082 31.6482 47.8272 31.6482C47.5725 31.6482 47.3281 31.5471 47.148 31.3671C46.9678 31.187 46.8666 30.9428 46.8666 30.6882V15.3182L39.8034 31.0835C39.7312 31.249 39.6129 31.3902 39.4626 31.4903C39.3123 31.5904 39.1364 31.6453 38.9558 31.6482Z" fill="white"/>
<path d="M47.0883 52.5988H15.0684C14.2562 52.5988 13.4772 52.2766 12.9024 51.7031C12.3277 51.1296 12.0042 50.3515 12.0029 49.5398V37.0453C12.0042 36.2481 12.3216 35.4839 12.8856 34.9202C13.4496 34.3566 14.2142 34.0393 15.0119 34.0381H47.4273C47.6821 34.0381 47.9264 34.1392 48.1066 34.3193C48.2867 34.4993 48.3879 34.7435 48.3879 34.9981C48.3879 35.2527 48.2867 35.4969 48.1066 35.677C47.9264 35.857 47.6821 35.9582 47.4273 35.9582H14.9742C14.6861 35.9594 14.4101 36.0743 14.2064 36.2779C14.0027 36.4815 13.8877 36.7573 13.8865 37.0453V49.5398C13.8865 49.6898 13.9161 49.8383 13.9736 49.9767C14.0312 50.1152 14.1156 50.241 14.2219 50.3468C14.3282 50.4526 14.4544 50.5364 14.5932 50.5934C14.732 50.6503 14.8807 50.6793 15.0307 50.6787H47.0506C47.3054 50.6787 47.5497 50.7798 47.7299 50.9599C47.91 51.1399 48.0112 51.3841 48.0112 51.6387C48.0112 51.8933 47.91 52.1375 47.7299 52.3176C47.5497 52.4976 47.3054 52.5988 47.0506 52.5988H47.0883Z" fill="white"/>
<path d="M108.768 58.4531H68.4893V64.9992H108.768V58.4531Z" fill="white"/>
<path d="M152.721 58.4531H108.769V64.9992H152.721V58.4531Z" fill="white"/>
<path d="M193 58.4531H152.721V64.9992H193V58.4531Z" fill="white"/>
<path d="M22.6258 0.498047V11.0349H9.05504V25.2519H0V0.498047H22.6258Z" fill="white"/>
<path d="M60.668 0.498047V25.2519H51.9426V11.0349H38.0469V0.498047H60.668Z" fill="white"/>
<path d="M22.6258 56.2749V64.9999H0V40.2461H9.05504V56.2749H22.6258Z" fill="white"/>
<path d="M60.668 40.2461V64.9999H38.0469V56.2749H51.9426V40.2461H60.668Z" fill="white"/>
</g>
<defs>
<clipPath id="clip0_360_125">
<rect width="193" height="65" fill="white"/>
</clipPath>
</defs>
</svg>
