<svg width="44" height="45" viewBox="0 0 44 45" fill="none" xmlns="http://www.w3.org/2000/svg">
<path d="M41.25 14.1504V12.2783L38.8008 11.5049L38.6117 10.5908L40.3391 8.77148L39.4453 7.06641L36.9531 7.72559L36.3344 7.06641L36.9789 4.58789L35.3375 3.56836L33.507 5.41406L32.5875 5.13281L31.9859 2.8125H30.0438L29.5109 5.13281L28.4711 5.41406L26.7781 3.56836L25.1109 4.53516L25.807 6.96973L25.1109 7.70801L22.6617 7.04883L21.7164 8.72754L23.4953 10.5732L23.2461 11.4873L20.7969 12.1729L20.7711 14.0801L23.2461 14.7393L23.4523 15.8027L21.725 17.5518L22.6187 19.1777L25.1625 18.5186L25.7812 19.2744L25.0852 21.6387L26.7953 22.6582L28.4625 20.8652L29.4594 21.1201L30.0352 23.625L31.9773 23.6514L32.5531 21.1201L33.55 20.8125L35.3289 22.7109L37.082 21.6475L36.3258 19.1865L36.9961 18.4746L39.4711 19.248L40.3563 17.4814L38.5602 15.8291L38.7492 14.7656L41.25 14.1504ZM31.0062 18.123C28.3164 18.123 26.125 15.8906 26.125 13.1309C26.125 10.3711 28.3078 8.13867 31.0062 8.13867C33.7047 8.13867 35.8875 10.3711 35.8875 13.1309C35.8875 15.8994 33.7047 18.123 31.0062 18.123ZM37.2195 19.5645L41.25 20.8389V24.3457L36.5148 25.5234L36.1625 27.5186L39.5055 30.6211L37.8555 33.9521L33.2148 32.4844L31.9602 33.8203L33.3953 38.4346L30.1039 40.4297L26.7609 36.8701L24.8961 37.4502L23.8133 42.1963L20.1695 42.1523L19.0867 37.4414L17.2219 36.9492L14.0938 40.3242L10.8797 38.417L12.1859 33.9785L11.0086 32.5635L6.23906 33.8027L4.54609 30.7441L7.80312 27.457L7.39062 25.4531L2.75 24.2139L2.79297 20.6191L7.39062 19.3271L7.88047 17.5957L4.5375 14.1328L6.31641 10.9863L10.9227 12.2256L12.2289 10.8457L10.9227 6.27539L14.0508 4.45605L17.2133 7.91895L19.1641 7.38281L20.1609 2.8125H23.8047L24.8016 6.84668L22.8594 6.32812L22.318 6.17871L22.0344 6.67969L21.0891 8.3584L20.8055 8.85059L21.2008 9.25488L22.6789 10.7842L22.6531 10.8721L20.6078 11.4434L20.075 11.5928L20.0664 12.1553L20.0492 13.2891C15.9672 14.2031 12.8906 17.9297 12.8906 22.3857C12.8906 27.5098 16.9555 31.6758 21.9742 31.6758C26.3141 31.6758 29.9406 28.5645 30.843 24.3984L31.9773 24.416L32.5703 24.4248L32.7078 23.8359L33.1891 21.7266L33.3523 21.6738L34.8219 23.2383L35.2258 23.6689L35.7242 23.3701L37.4773 22.3066L37.9758 21.999L37.8039 21.4277L37.2195 19.5645Z" fill="#0787F5"/>
</svg>
