<svg width="100" height="100" viewBox="0 0 100 100" fill="none" xmlns="http://www.w3.org/2000/svg">
<circle cx="50" cy="50" r="50" fill="white"/>
<g clip-path="url(#clip0_408_6)">
<path d="M50.5 50.4375C55.3135 50.4375 59.2188 46.5322 59.2188 41.7188C59.2188 36.9053 55.3135 33 50.5 33C45.6865 33 41.7812 36.9053 41.7812 41.7188C41.7812 46.5322 45.6865 50.4375 50.5 50.4375ZM58.25 52.375H54.9139C53.5697 52.9926 52.0742 53.3438 50.5 53.3438C48.9258 53.3438 47.4363 52.9926 46.0861 52.375H42.75C38.4693 52.375 35 55.8443 35 60.125V61.0938C35 62.6982 36.3018 64 37.9062 64H63.0938C64.6982 64 66 62.6982 66 61.0938V60.125C66 55.8443 62.5307 52.375 58.25 52.375Z" fill="#0787F5"/>
</g>
<defs>
<clipPath id="clip0_408_6">
<rect width="31" height="31" fill="white" transform="translate(35 33)"/>
</clipPath>
</defs>
</svg>
