<svg width="19" height="19" viewBox="0 0 19 19" fill="none" xmlns="http://www.w3.org/2000/svg">
<path d="M15.6229 2.67012C13.9043 0.947461 11.6156 0 9.1834 0C4.16309 0 0.0779297 4.08516 0.0779297 9.10547C0.0779297 10.7092 0.496289 12.276 1.29199 13.6582L0 18.375L4.82754 17.1076C6.15645 17.8336 7.65352 18.215 9.1793 18.215H9.1834C14.1996 18.215 18.375 14.1299 18.375 9.10957C18.375 6.67734 17.3414 4.39277 15.6229 2.67012ZM9.1834 16.6811C7.82168 16.6811 6.48867 16.316 5.32793 15.627L5.05312 15.4629L2.19023 16.2135L2.95312 13.4203L2.77266 13.1332C2.01387 11.9273 1.61602 10.5369 1.61602 9.10547C1.61602 4.93418 5.01211 1.53809 9.1875 1.53809C11.2096 1.53809 13.1086 2.32559 14.5359 3.75703C15.9633 5.18848 16.841 7.0875 16.8369 9.10957C16.8369 13.285 13.3547 16.6811 9.1834 16.6811ZM13.3342 11.0127C13.1086 10.8979 11.9889 10.3482 11.7797 10.2744C11.5705 10.1965 11.4188 10.1596 11.267 10.3893C11.1152 10.6189 10.6805 11.1275 10.5451 11.2834C10.4139 11.4352 10.2785 11.4557 10.0529 11.3408C8.71582 10.6723 7.83809 10.1473 6.95625 8.63379C6.72246 8.23184 7.19004 8.26055 7.6248 7.39102C7.69863 7.23926 7.66172 7.10801 7.6043 6.99316C7.54687 6.87832 7.0916 5.75859 6.90293 5.30332C6.71836 4.86035 6.52969 4.92188 6.39023 4.91367C6.25898 4.90547 6.10723 4.90547 5.95547 4.90547C5.80371 4.90547 5.55762 4.96289 5.34844 5.18848C5.13926 5.41816 4.55273 5.96777 4.55273 7.0875C4.55273 8.20723 5.36895 9.29004 5.47969 9.4418C5.59453 9.59356 7.0834 11.8904 9.36797 12.8789C10.8117 13.5023 11.3777 13.5557 12.0996 13.449C12.5385 13.3834 13.4449 12.8994 13.6336 12.3662C13.8223 11.833 13.8223 11.3777 13.7648 11.2834C13.7115 11.1809 13.5598 11.1234 13.3342 11.0127Z" fill="white"/>
</svg>
