<svg width="43" height="43" viewBox="0 0 43 43" fill="none" xmlns="http://www.w3.org/2000/svg">
<circle cx="21.5" cy="21.5" r="21.5" fill="white"/>
<path d="M29.1611 12.7412C27.1152 10.6904 24.3906 9.5625 21.4951 9.5625C15.5186 9.5625 10.6553 14.4258 10.6553 20.4023C10.6553 22.3115 11.1533 24.1768 12.1006 25.8223L10.5625 31.4375L16.3096 29.9287C17.8916 30.793 19.6738 31.2471 21.4902 31.2471H21.4951C27.4668 31.2471 32.4375 26.3838 32.4375 20.4072C32.4375 17.5117 31.207 14.792 29.1611 12.7412ZM21.4951 29.4209C19.874 29.4209 18.2871 28.9863 16.9053 28.166L16.5781 27.9707L13.1699 28.8643L14.0781 25.5391L13.8633 25.1973C12.96 23.7617 12.4863 22.1064 12.4863 20.4023C12.4863 15.4365 16.5293 11.3936 21.5 11.3936C23.9072 11.3936 26.168 12.3311 27.8672 14.0352C29.5664 15.7393 30.6113 18 30.6064 20.4072C30.6064 25.3779 26.4609 29.4209 21.4951 29.4209ZM26.4365 22.6729C26.168 22.5361 24.835 21.8818 24.5859 21.7939C24.3369 21.7012 24.1563 21.6572 23.9756 21.9307C23.7949 22.2041 23.2773 22.8096 23.1162 22.9951C22.96 23.1758 22.7988 23.2002 22.5303 23.0635C20.9385 22.2676 19.8936 21.6426 18.8438 19.8408C18.5654 19.3623 19.1221 19.3965 19.6396 18.3613C19.7275 18.1807 19.6836 18.0244 19.6152 17.8877C19.5469 17.751 19.0049 16.418 18.7803 15.876C18.5605 15.3486 18.3359 15.4219 18.1699 15.4121C18.0137 15.4023 17.833 15.4023 17.6523 15.4023C17.4717 15.4023 17.1787 15.4707 16.9297 15.7393C16.6807 16.0127 15.9824 16.667 15.9824 18C15.9824 19.333 16.9541 20.6221 17.0859 20.8027C17.2227 20.9834 18.9951 23.7178 21.7148 24.8945C23.4336 25.6367 24.1074 25.7002 24.9668 25.5732C25.4893 25.4951 26.5684 24.9189 26.793 24.2842C27.0176 23.6494 27.0176 23.1074 26.9492 22.9951C26.8857 22.873 26.7051 22.8047 26.4365 22.6729Z" fill="#44C300"/>
</svg>
