<svg width="100" height="100" viewBox="0 0 100 100" fill="none" xmlns="http://www.w3.org/2000/svg">
<circle cx="50" cy="50" r="50" fill="white"/>
<g clip-path="url(#clip0_408_3)">
<path d="M68.8193 45.3402L65.1627 34.3703C64.693 32.9539 63.3705 32 61.8746 32H51.6562V45.875H68.9061C68.8771 45.6943 68.8771 45.5137 68.8193 45.3402ZM49.3438 32H39.1254C37.6295 32 36.307 32.9539 35.8373 34.3703L32.1807 45.3402C32.1229 45.5137 32.1229 45.6943 32.0939 45.875H49.3438V32ZM32 48.1875V65.5312C32 67.4463 33.5537 69 35.4688 69H65.5312C67.4463 69 69 67.4463 69 65.5312V48.1875H32Z" fill="#0787F5"/>
</g>
<defs>
<clipPath id="clip0_408_3">
<rect width="37" height="37" fill="white" transform="translate(32 32)"/>
</clipPath>
</defs>
</svg>
