<svg width="88" height="88" viewBox="0 0 88 88" fill="none" xmlns="http://www.w3.org/2000/svg">
<circle cx="44" cy="44" r="44" fill="#0460AD"/>
<path d="M63.1146 35.4125L59.0052 28.9375C58.638 28.3562 57.9858 28 57.2892 28H31.7083C31.0118 28 30.3596 28.3562 29.9923 28.9375L25.8829 35.4125C23.7617 38.7563 25.6423 43.4062 29.6061 43.9375C29.891 43.975 30.1823 43.9937 30.4736 43.9937C32.3478 43.9937 34.0068 43.1813 35.1465 41.925C36.2863 43.1813 37.9516 43.9937 39.8195 43.9937C41.6937 43.9937 43.3527 43.1813 44.4924 41.925C45.6322 43.1813 47.2975 43.9937 49.1654 43.9937C51.0396 43.9937 52.6986 43.1813 53.8384 41.925C54.9844 43.1813 56.6434 43.9937 58.5113 43.9937C58.8089 43.9937 59.0938 43.975 59.3788 43.9375C63.3552 43.4125 65.2421 38.7625 63.1146 35.4125ZM58.524 46C57.8908 46 57.2639 45.9062 56.6561 45.7625V52H32.3415V45.7625C31.7336 45.9 31.1067 46 30.4736 46C30.0936 46 29.7074 45.975 29.3338 45.925C28.9792 45.875 28.631 45.7938 28.2954 45.7V58C28.2954 59.1063 29.2008 60 30.3216 60H58.6886C59.8094 60 60.7148 59.1063 60.7148 58V45.7C60.3729 45.8 60.031 45.8812 59.6764 45.925C59.2901 45.975 58.9102 46 58.524 46Z" fill="white"/>
</svg>
