<svg width="88" height="88" viewBox="0 0 88 88" fill="none" xmlns="http://www.w3.org/2000/svg">
<circle cx="44" cy="44" r="44" fill="#0460AD"/>
<path d="M57.9062 58.75H56.5V26.6875C56.5 25.7555 55.7445 25 54.8125 25H31.1875C30.2555 25 29.5 25.7555 29.5 26.6875V58.75H28.0938C27.6278 58.75 27.25 59.1278 27.25 59.5938V61H58.75V59.5938C58.75 59.1278 58.3722 58.75 57.9062 58.75ZM36.25 30.3438C36.25 29.8778 36.6278 29.5 37.0938 29.5H39.9062C40.3722 29.5 40.75 29.8778 40.75 30.3438V33.1562C40.75 33.6222 40.3722 34 39.9062 34H37.0938C36.6278 34 36.25 33.6222 36.25 33.1562V30.3438ZM36.25 37.0938C36.25 36.6278 36.6278 36.25 37.0938 36.25H39.9062C40.3722 36.25 40.75 36.6278 40.75 37.0938V39.9062C40.75 40.3722 40.3722 40.75 39.9062 40.75H37.0938C36.6278 40.75 36.25 40.3722 36.25 39.9062V37.0938ZM39.9062 47.5H37.0938C36.6278 47.5 36.25 47.1222 36.25 46.6562V43.8438C36.25 43.3778 36.6278 43 37.0938 43H39.9062C40.3722 43 40.75 43.3778 40.75 43.8438V46.6562C40.75 47.1222 40.3722 47.5 39.9062 47.5ZM45.25 58.75H40.75V52.8438C40.75 52.3778 41.1278 52 41.5938 52H44.4062C44.8722 52 45.25 52.3778 45.25 52.8438V58.75ZM49.75 46.6562C49.75 47.1222 49.3722 47.5 48.9062 47.5H46.0938C45.6278 47.5 45.25 47.1222 45.25 46.6562V43.8438C45.25 43.3778 45.6278 43 46.0938 43H48.9062C49.3722 43 49.75 43.3778 49.75 43.8438V46.6562ZM49.75 39.9062C49.75 40.3722 49.3722 40.75 48.9062 40.75H46.0938C45.6278 40.75 45.25 40.3722 45.25 39.9062V37.0938C45.25 36.6278 45.6278 36.25 46.0938 36.25H48.9062C49.3722 36.25 49.75 36.6278 49.75 37.0938V39.9062ZM49.75 33.1562C49.75 33.6222 49.3722 34 48.9062 34H46.0938C45.6278 34 45.25 33.6222 45.25 33.1562V30.3438C45.25 29.8778 45.6278 29.5 46.0938 29.5H48.9062C49.3722 29.5 49.75 29.8778 49.75 30.3438V33.1562Z" fill="white"/>
</svg>
