<svg width="35" height="35" viewBox="0 0 35 35" fill="none" xmlns="http://www.w3.org/2000/svg">
<g clip-path="url(#clip0_433_2)">
<circle cx="18" cy="18" r="15" fill="white"/>
<path d="M17.5 0.546875C8.13477 0.546875 0.546875 8.13477 0.546875 17.5C0.546875 26.8652 8.13477 34.4531 17.5 34.4531C26.8652 34.4531 34.4531 26.8652 34.4531 17.5C34.4531 8.13477 26.8652 0.546875 17.5 0.546875ZM27.3438 19.4141C27.3438 19.8652 26.9746 20.2344 26.5234 20.2344H20.2344V26.5234C20.2344 26.9746 19.8652 27.3438 19.4141 27.3438H15.5859C15.1348 27.3438 14.7656 26.9746 14.7656 26.5234V20.2344H8.47656C8.02539 20.2344 7.65625 19.8652 7.65625 19.4141V15.5859C7.65625 15.1348 8.02539 14.7656 8.47656 14.7656H14.7656V8.47656C14.7656 8.02539 15.1348 7.65625 15.5859 7.65625H19.4141C19.8652 7.65625 20.2344 8.02539 20.2344 8.47656V14.7656H26.5234C26.9746 14.7656 27.3438 15.1348 27.3438 15.5859V19.4141Z" fill="#FFB20D"/>
</g>
<defs>
<clipPath id="clip0_433_2">
<rect width="35" height="35" fill="white"/>
</clipPath>
</defs>
</svg>
