<svg width="100" height="100" viewBox="0 0 100 100" fill="none" xmlns="http://www.w3.org/2000/svg">
<circle cx="50" cy="50" r="50" fill="white"/>
<path d="M71.8125 39.3516V37.1883L68.9736 36.2945L68.7545 35.2383L70.7566 33.1359L69.7207 31.1656L66.832 31.9273L66.1148 31.1656L66.8619 28.3016L64.9594 27.1234L62.8377 29.2562L61.7719 28.9312L61.0746 26.25H58.8234L58.2059 28.9312L57.0006 29.2562L55.0383 27.1234L53.1059 28.2406L53.9127 31.0539L53.1059 31.907L50.267 31.1453L49.1713 33.0852L51.2332 35.218L50.9443 36.2742L48.1055 37.0664L48.0756 39.2703L50.9443 40.032L51.1834 41.2609L49.1813 43.282L50.2172 45.1609L53.1656 44.3992L53.8828 45.2727L53.076 48.0047L55.0582 49.1828L56.9906 47.1109L58.1461 47.4055L58.8135 50.3L61.0646 50.3305L61.732 47.4055L62.8875 47.05L64.9494 49.2437L66.9814 48.0148L66.1049 45.1711L66.8818 44.3484L69.7506 45.2422L70.7766 43.2008L68.6947 41.2914L68.9139 40.0625L71.8125 39.3516ZM59.9391 43.9422C56.8213 43.9422 54.2812 41.3625 54.2812 38.1734C54.2812 34.9844 56.8113 32.4047 59.9391 32.4047C63.0668 32.4047 65.5969 34.9844 65.5969 38.1734C65.5969 41.3727 63.0668 43.9422 59.9391 43.9422ZM67.1408 45.6078L71.8125 47.0805V51.1328L66.324 52.4937L65.9156 54.7992L69.7904 58.3844L67.8779 62.2336L62.499 60.5375L61.0447 62.0812L62.7082 67.4133L58.8932 69.7187L55.0184 65.6055L52.8568 66.2758L51.6018 71.7602L47.3783 71.7094L46.1232 66.2656L43.9617 65.6969L40.3359 69.5969L36.6105 67.393L38.1246 62.2641L36.76 60.6289L31.2316 62.0609L29.2693 58.5266L33.0445 54.7281L32.5664 52.4125L27.1875 50.9805L27.2373 46.8266L32.5664 45.3336L33.1342 43.3328L29.2594 39.3312L31.3213 35.6953L36.6604 37.1273L38.1744 35.5328L36.6604 30.2516L40.2861 28.1492L43.9518 32.1508L46.2129 31.5312L47.3684 26.25H51.5918L52.7473 30.9117L50.4961 30.3125L49.8686 30.1398L49.5398 30.7187L48.4441 32.6586L48.1154 33.2273L48.5736 33.6945L50.2869 35.4617L50.257 35.5633L47.8863 36.2234L47.2688 36.3961L47.2588 37.0461L47.2389 38.3562C42.5074 39.4125 38.9414 43.7187 38.9414 48.868C38.9414 54.7891 43.6529 59.6031 49.4701 59.6031C54.5004 59.6031 58.7039 56.0078 59.7498 51.1937L61.0646 51.2141L61.752 51.2242L61.9113 50.5437L62.4691 48.1062L62.6584 48.0453L64.3617 49.8531L64.8299 50.3508L65.4076 50.0055L67.4396 48.7766L68.0174 48.4211L67.8182 47.7609L67.1408 45.6078Z" fill="#0787F5"/>
</svg>
